<svg width="19" height="16" viewBox="0 0 19 16" fill="none" xmlns="http://www.w3.org/2000/svg">
<path d="M9.16667 2.95833C12.325 2.95833 15.1417 4.73333 16.5167 7.54167C16.025 8.55833 15.3333 9.43333 14.5083 10.1417L15.6833 11.3167C16.8417 10.2917 17.7583 9.00833 18.3333 7.54167C16.8917 3.88333 13.3333 1.29167 9.16667 1.29167C8.10833 1.29167 7.09167 1.45833 6.13333 1.76667L7.50833 3.14167C8.05 3.03333 8.6 2.95833 9.16667 2.95833ZM8.275 3.90833L10 5.63333C10.475 5.84167 10.8583 6.225 11.0667 6.7L12.7917 8.425C12.8583 8.14167 12.9083 7.84167 12.9083 7.53333C12.9167 5.46667 11.2333 3.79167 9.16667 3.79167C8.85833 3.79167 8.56667 3.83333 8.275 3.90833ZM0.841667 1.18333L3.075 3.41667C1.71667 4.48333 0.641667 5.9 0 7.54167C1.44167 11.2 5 13.7917 9.16667 13.7917C10.4333 13.7917 11.65 13.55 12.7667 13.1083L15.6167 15.9583L16.7917 14.7833L2.01667 0L0.841667 1.18333ZM7.09167 7.43333L9.26667 9.60833C9.23333 9.61667 9.2 9.625 9.16667 9.625C8.01667 9.625 7.08333 8.69167 7.08333 7.54167C7.08333 7.5 7.09167 7.475 7.09167 7.43333V7.43333ZM4.25833 4.6L5.71667 6.05833C5.525 6.51667 5.41667 7.01667 5.41667 7.54167C5.41667 9.60833 7.1 11.2917 9.16667 11.2917C9.69167 11.2917 10.1917 11.1833 10.6417 10.9917L11.4583 11.8083C10.725 12.0083 9.95833 12.125 9.16667 12.125C6.00833 12.125 3.19167 10.35 1.81667 7.54167C2.4 6.35 3.25 5.36667 4.25833 4.6Z" fill="#005007"/>
</svg>
