<svg width="25" height="24" viewBox="0 0 25 24" fill="none" xmlns="http://www.w3.org/2000/svg">
<path d="M3.125 11.25C4.85089 11.25 6.25 9.85089 6.25 8.125C6.25 6.39911 4.85089 5 3.125 5C1.39911 5 0 6.39911 0 8.125C0 9.85089 1.39911 11.25 3.125 11.25Z" fill="#005007"/>
<path d="M8.75 6.25C10.4759 6.25 11.875 4.85089 11.875 3.125C11.875 1.39911 10.4759 0 8.75 0C7.02411 0 5.625 1.39911 5.625 3.125C5.625 4.85089 7.02411 6.25 8.75 6.25Z" fill="#005007"/>
<path d="M16.25 6.25C17.9759 6.25 19.375 4.85089 19.375 3.125C19.375 1.39911 17.9759 0 16.25 0C14.5241 0 13.125 1.39911 13.125 3.125C13.125 4.85089 14.5241 6.25 16.25 6.25Z" fill="#005007"/>
<path d="M21.875 11.25C23.6009 11.25 25 9.85089 25 8.125C25 6.39911 23.6009 5 21.875 5C20.1491 5 18.75 6.39911 18.75 8.125C18.75 9.85089 20.1491 11.25 21.875 11.25Z" fill="#005007"/>
<path d="M19.1748 14.825C18.0873 13.55 17.1748 12.4625 16.0748 11.1875C15.4998 10.5125 14.7623 9.8375 13.8873 9.5375C13.7498 9.4875 13.6123 9.45 13.4748 9.425C13.1623 9.375 12.8248 9.375 12.4998 9.375C12.1748 9.375 11.8373 9.375 11.5123 9.4375C11.3748 9.4625 11.2373 9.5 11.0998 9.55C10.2248 9.85 9.49981 10.525 8.91231 11.2C7.82481 12.475 6.91231 13.5625 5.81231 14.8375C4.17481 16.475 2.16231 18.2875 2.53731 20.825C2.89981 22.1 3.81231 23.3625 5.44981 23.725C6.36231 23.9125 9.27481 23.175 12.3748 23.175H12.5998C15.6998 23.175 18.6123 23.9 19.5248 23.725C21.1623 23.3625 22.0748 22.0875 22.4373 20.825C22.8248 18.275 20.8123 16.4625 19.1748 14.825V14.825Z" fill="#005007"/>
</svg>
