<svg width="28" height="25" viewBox="0 0 28 25" fill="none" xmlns="http://www.w3.org/2000/svg">
<path d="M27.9999 15.5556C27.9999 14.7 27.2999 14 26.4444 14H23.3333V17.1111H26.4444C27.2999 17.1111 27.9999 16.4111 27.9999 15.5556Z" fill="#005007"/>
<path d="M26.4444 20.2223H23.3333V23.3334H26.4444C27.2999 23.3334 27.9999 22.6334 27.9999 21.7778C27.9999 20.9223 27.2999 20.2223 26.4444 20.2223Z" fill="#005007"/>
<path d="M14 15.5556H10.8889V21.7778H14C14 23.4889 15.4 24.8889 17.1111 24.8889H21.7778V12.4445H17.1111C15.4 12.4445 14 13.8445 14 15.5556Z" fill="#005007"/>
<path d="M3.11111 14C3.11111 12.2889 4.51111 10.8889 6.22222 10.8889H8.55556C11.5578 10.8889 14 8.44667 14 5.44444C14 2.44222 11.5578 0 8.55556 0H3.11111C2.25556 0 1.55556 0.7 1.55556 1.55556C1.55556 2.41111 2.25556 3.11111 3.11111 3.11111H8.55556C9.84667 3.11111 10.8889 4.15333 10.8889 5.44444C10.8889 6.73556 9.84667 7.77778 8.55556 7.77778H6.22222C2.78444 7.77778 0 10.5622 0 14C0 17.4378 2.78444 20.2222 6.22222 20.2222H9.33333V17.1111H6.22222C4.51111 17.1111 3.11111 15.7111 3.11111 14Z" fill="#005007"/>
</svg>
