<svg width="55" height="52" viewBox="0 0 55 52" fill="none" xmlns="http://www.w3.org/2000/svg">
<path d="M37.9873 36.2158L54.1769 20.2945L54.3828 20.0589C55.0009 19.2341 54.9322 18.041 54.1765 17.2982L37.987 1.38199L37.7648 1.19116C36.4681 0.222756 34.5594 1.15303 34.5594 2.8802V10.5473L33.7508 10.6017C20.9255 11.6197 13.4124 19.7357 11.617 34.4604C11.3865 36.3515 13.5555 37.5352 14.9574 36.2831C20.1122 31.6805 25.4378 28.8225 30.9594 27.6766C31.845 27.493 32.7356 27.3533 33.6317 27.2575L34.5594 27.174V34.7178L34.5785 35.0141C34.7945 36.6438 36.7712 37.4117 37.9873 36.2158ZM34.0147 14.1921L38.1594 13.9133V6.5998L50.5657 18.7966L38.1594 30.9976V23.2361L33.2793 23.6746L33.249 23.6778C27.1207 24.333 21.3322 26.7881 15.8723 30.8799C16.9458 26.0627 18.7791 22.4363 21.1876 19.8387C24.1725 16.6194 28.3494 14.6458 34.0147 14.1921ZM9.80005 4.40005C4.82949 4.40005 0.800049 8.4295 0.800049 13.4001V42.2001C0.800049 47.1706 4.82949 51.2001 9.80005 51.2001H38.6001C43.5706 51.2001 47.6001 47.1706 47.6001 42.2001V38.6001C47.6001 37.6061 46.794 36.8001 45.8001 36.8001C44.8061 36.8001 44.0001 37.6061 44.0001 38.6001V42.2001C44.0001 45.1823 41.5823 47.6001 38.6001 47.6001H9.80005C6.8177 47.6001 4.40005 45.1823 4.40005 42.2001V13.4001C4.40005 10.4177 6.8177 8.00005 9.80005 8.00005H20.6C21.5942 8.00005 22.4 7.19416 22.4 6.20005C22.4 5.20595 21.5942 4.40005 20.6 4.40005H9.80005Z" fill="#005007"/>
</svg>
