<svg width="25" height="28" viewBox="0 0 25 28" fill="none" xmlns="http://www.w3.org/2000/svg">
<path d="M12.4993 5.6C13.081 5.6 13.6497 5.43578 14.1334 5.12812C14.6171 4.82045 14.9941 4.38315 15.2167 3.87152C15.4393 3.35988 15.4976 2.7969 15.3841 2.25375C15.2706 1.7106 14.9905 1.21169 14.5791 0.820102C14.1677 0.428515 13.6437 0.161841 13.0731 0.0538025C12.5025 -0.0542361 11.9111 0.00121319 11.3736 0.213139C10.8362 0.425064 10.3768 0.783947 10.0536 1.2444C9.73041 1.70486 9.5579 2.24621 9.5579 2.8C9.5579 3.54261 9.86779 4.2548 10.4194 4.7799C10.971 5.305 11.7192 5.6 12.4993 5.6ZM23.5293 25.2H22.0587V18.2C22.0587 17.8287 21.9037 17.4726 21.6279 17.2101C21.3521 16.9475 20.978 16.8 20.588 16.8H13.2346V14H20.588C20.978 14 21.3521 13.8525 21.6279 13.59C21.9037 13.3274 22.0587 12.9713 22.0587 12.6C22.0587 12.2287 21.9037 11.8726 21.6279 11.6101C21.3521 11.3475 20.978 11.2 20.588 11.2H13.2346V8.4C13.2346 8.0287 13.0796 7.6726 12.8038 7.41005C12.528 7.1475 12.154 7 11.7639 7C11.3739 7 10.9998 7.1475 10.724 7.41005C10.4482 7.6726 10.2932 8.0287 10.2932 8.4V18.2C10.2932 18.5713 10.4482 18.9274 10.724 19.19C10.9998 19.4525 11.3739 19.6 11.7639 19.6H19.1173V26.6C19.1173 26.9713 19.2722 27.3274 19.548 27.59C19.8239 27.8525 20.1979 28 20.588 28H23.5293C23.9194 28 24.2934 27.8525 24.5693 27.59C24.8451 27.3274 25 26.9713 25 26.6C25 26.2287 24.8451 25.8726 24.5693 25.61C24.2934 25.3475 23.9194 25.2 23.5293 25.2ZM13.5287 22.96C12.7879 23.9003 11.7551 24.5948 10.5766 24.9453C9.39808 25.2957 8.13361 25.2843 6.96229 24.9126C5.79097 24.541 4.77219 23.8279 4.05027 22.8744C3.32834 21.9209 2.93986 20.7753 2.93986 19.6C2.94159 18.5118 3.27634 17.4477 3.90318 16.5377C4.53002 15.6277 5.42179 14.9113 6.46948 14.476C6.82833 14.3275 7.1105 14.0493 7.25391 13.7028C7.39733 13.3562 7.39025 12.9696 7.23423 12.628C7.07822 12.2864 6.78604 12.0178 6.42197 11.8813C6.05791 11.7447 5.65179 11.7515 5.29294 11.9C4.05537 12.4144 2.95833 13.1924 2.08633 14.174C1.21432 15.1555 0.590609 16.3145 0.263229 17.5617C-0.0641505 18.8089 -0.0864641 20.1109 0.198007 21.3676C0.482477 22.6243 1.06614 23.802 1.90405 24.8102C2.74196 25.8183 3.81175 26.6299 5.03104 27.1825C6.25033 27.7351 7.58659 28.0139 8.93689 27.9974C10.2872 27.981 11.6155 27.6697 12.8196 27.0877C14.0236 26.5056 15.0713 25.6682 15.8818 24.64C16.1158 24.343 16.2163 23.9696 16.1612 23.602C16.106 23.2344 15.8997 22.9028 15.5877 22.68C15.2756 22.4572 14.8834 22.3616 14.4973 22.4141C14.1112 22.4666 13.7628 22.663 13.5287 22.96V22.96Z" fill="#005007"/>
</svg>
